<svg width="36" height="36" viewBox="0 0 36 36" fill="none" xmlns="http://www.w3.org/2000/svg">
<rect width="36" height="36" rx="18" fill="#FF7116"/>
<path fill-rule="evenodd" clip-rule="evenodd" d="M21.543 13.394C21.543 13.9621 22.0045 14.4227 22.574 14.4227C23.1434 14.4227 23.605 13.9621 23.605 13.394C23.605 12.8258 23.1434 12.3652 22.574 12.3652C22.0045 12.3652 21.543 12.8258 21.543 13.394ZM15.123 17.9699C15.123 16.3917 16.4053 15.1123 17.987 15.1123C19.5687 15.1123 20.851 16.3917 20.851 17.9699C20.851 19.5481 19.5687 20.8275 17.987 20.8275C16.4053 20.8275 15.123 19.5481 15.123 17.9699ZM17.9862 22.3728C15.5495 22.3728 13.5742 20.4019 13.5742 17.9706C13.5742 15.5393 15.5495 13.5684 17.9862 13.5684C20.4229 13.5684 22.3982 15.5393 22.3982 17.9706C22.3982 20.4019 20.4229 22.3728 17.9862 22.3728ZM24.9615 11.0373C24.6158 10.6915 24.2867 10.4774 23.8255 10.2982C23.4773 10.1629 22.9542 10.0019 21.9909 9.95798C20.949 9.91045 20.6365 9.90039 17.9984 9.90039C15.3603 9.90039 15.0478 9.91045 14.0059 9.95798C13.0427 10.0019 12.5195 10.1629 12.1714 10.2982C11.7102 10.4774 11.381 10.6915 11.0353 11.0373C10.6896 11.383 10.4755 11.7122 10.2962 12.1733C10.1609 12.5215 9.99998 13.0446 9.95602 14.0079C9.9085 15.0498 9.89844 15.3622 9.89844 18.0004C9.89844 20.6385 9.9085 20.951 9.95602 21.9928C9.99998 22.9561 10.1609 23.4793 10.2962 23.8275C10.4755 24.2886 10.6896 24.6178 11.0353 24.9635C11.381 25.3093 11.7102 25.5234 12.1714 25.7026C12.5195 25.8379 13.0427 25.9988 14.006 26.0428C15.0477 26.0903 15.3601 26.1004 17.9984 26.1004C20.6367 26.1004 20.9492 26.0903 21.9909 26.0428C22.9542 25.9988 23.4773 25.8379 23.8255 25.7026C24.2867 25.5234 24.6158 25.3093 24.9616 24.9635C25.3073 24.6178 25.5214 24.2886 25.7006 23.8275C25.8359 23.4793 25.9969 22.9561 26.0409 21.9928C26.0884 20.951 26.0984 20.6385 26.0984 18.0004C26.0984 15.3622 26.0884 15.0498 26.0409 14.0079C25.9969 13.0446 25.8359 12.5215 25.7006 12.1733C25.5214 11.7122 25.3073 11.383 24.9615 11.0373Z" fill="white"/>
</svg>
