<svg width="40" height="47" viewBox="0 0 40 47" fill="none" xmlns="http://www.w3.org/2000/svg">
<path d="M33.1876 24.6536C33.1329 18.7951 38.2397 15.948 38.473 15.814C35.5812 11.8099 31.0965 11.2629 29.521 11.2191C25.7564 10.8417 22.1042 13.3579 20.1859 13.3579C18.2301 13.3579 15.2749 11.2547 12.0922 11.3176C7.9964 11.3777 4.1627 13.6287 2.06007 17.1268C-2.27768 24.257 0.95691 34.7322 5.1132 40.4949C7.19279 43.3202 9.62089 46.4682 12.8008 46.3588C15.9115 46.2385 17.0723 44.4771 20.8282 44.4771C24.5467 44.4771 25.6383 46.3588 28.8815 46.2877C32.2198 46.2385 34.3225 43.4515 36.3272 40.6043C38.7293 37.3715 39.6942 34.1824 39.7317 34.0211C39.6568 33.9965 33.2539 31.6744 33.1876 24.6536ZM27.0612 7.43109C28.7346 5.44545 29.8781 2.74324 29.5613 0C27.139 0.101196 24.1117 1.58905 22.3663 3.53366C20.8224 5.24579 19.4456 8.05194 19.7999 10.6912C22.5218 10.8827 25.3157 9.38663 27.0612 7.43109Z" fill="#302E3A"/>
</svg>
