<svg width="156" height="42" viewBox="0 0 156 42" fill="none" xmlns="http://www.w3.org/2000/svg">
<g clip-path="url(#clip0_215_42593)">
<rect y="38.2246" width="38.2249" height="38.2249" rx="8.49442" transform="rotate(-90 0 38.2246)" fill="white"/>
<rect y="38.2246" width="38.2249" height="38.2249" rx="8.49442" transform="rotate(-90 0 38.2246)" fill="url(#paint0_linear_215_42593)"/>
<ellipse cx="47.4634" cy="38.5442" rx="28.3501" ry="24.5276" fill="url(#paint1_linear_215_42593)"/>
<ellipse cx="-9.23778" cy="38.5433" rx="28.3501" ry="24.5276" fill="url(#paint2_linear_215_42593)"/>
</g>
<path d="M75.3788 6.16699L69.2866 22.1263L63.157 6.16699H55.6445V32.7035H61.1013V15.1745L67.1935 32.7035H71.3422L77.4344 15.1745V32.7035H82.8912V6.16699H75.3788Z" fill="#302E3A"/>
<path d="M101.309 15.0997C99.7765 13.7542 97.6834 13.0814 94.955 13.0814C89.3487 13.0814 86.5455 15.9594 86.5455 21.7525V24.5931C86.5455 30.3863 89.3487 33.2642 94.955 33.2642C97.6834 33.2642 99.7765 32.5914 101.309 31.2459L102.318 32.7035H106.018V13.6421H102.318L101.309 15.0997ZM96.2258 28.1811C93.7216 28.1811 92.1519 26.8356 92.1519 24.2941V22.0516C92.1519 19.51 93.7216 18.1645 96.2258 18.1645C98.8047 18.1645 100.412 19.5474 100.412 22.2011V24.1446C100.412 26.7982 98.7673 28.1811 96.2258 28.1811Z" fill="#302E3A"/>
<path d="M121.79 13.0814C119.136 13.0814 117.043 13.7542 115.548 15.0997L114.501 13.6421H110.801V41.2999H116.408V31.9187C117.791 32.8157 119.585 33.2642 121.79 33.2642C127.433 33.2642 130.274 30.3863 130.274 24.5931V21.7525C130.274 15.9594 127.433 13.0814 121.79 13.0814ZM124.668 24.2941C124.668 26.8356 123.098 28.1811 120.594 28.1811C118.052 28.1811 116.408 26.7982 116.408 24.1446V22.2011C116.408 19.5474 118.015 18.1645 120.594 18.1645C123.098 18.1645 124.668 19.51 124.668 22.0516V24.2941Z" fill="#302E3A"/>
<path d="M139.804 11.6238V6.16699H134.197V11.6238H139.804ZM139.804 32.7035V13.6421H134.197V32.7035H139.804Z" fill="#302E3A"/>
<path d="M153.944 27.6579C151.813 27.6579 150.655 26.3123 150.655 23.8829V18.6878H155.626V13.6421H150.655V8.29739H145.048V13.6421H142.432V18.6878H145.048V24.9668C145.048 29.9378 147.889 32.7035 153.084 32.7035H155.999V27.6579H153.944Z" fill="#302E3A"/>
<defs>
<linearGradient id="paint0_linear_215_42593" x1="38.2249" y1="49.055" x2="-1.91124" y2="61.4781" gradientUnits="userSpaceOnUse">
<stop stop-color="#FFB800"/>
<stop offset="1" stop-color="#FF7116"/>
</linearGradient>
<linearGradient id="paint1_linear_215_42593" x1="25.1656" y1="23.3867" x2="50.8745" y2="59.8418" gradientUnits="userSpaceOnUse">
<stop stop-color="#FFC517"/>
<stop offset="1" stop-color="#FF4D00"/>
</linearGradient>
<linearGradient id="paint2_linear_215_42593" x1="13.3786" y1="25.0393" x2="-11.0894" y2="53.9489" gradientUnits="userSpaceOnUse">
<stop stop-color="#F7630F"/>
<stop offset="1" stop-color="#FF9737"/>
</linearGradient>
<clipPath id="clip0_215_42593">
<rect y="38.2246" width="38.2249" height="38.2249" rx="8.49442" transform="rotate(-90 0 38.2246)" fill="white"/>
</clipPath>
</defs>
</svg>
