<svg width="18" height="20" viewBox="0 0 18 20" fill="none" xmlns="http://www.w3.org/2000/svg">
<path d="M15.0353 10.6354C15.0105 8.10807 17.3241 6.87983 17.4298 6.82201C16.1196 5.09468 14.0879 4.85871 13.3742 4.83983C11.6687 4.67701 10.014 5.76249 9.14499 5.76249C8.25897 5.76249 6.92015 4.85517 5.47824 4.8823C3.62268 4.90826 1.88587 5.87929 0.933292 7.38835C-1.03188 10.4643 0.433518 14.9832 2.31648 17.4692C3.25861 18.688 4.35864 20.046 5.79924 19.9988C7.20853 19.9469 7.7344 19.1871 9.43598 19.1871C11.1206 19.1871 11.6152 19.9988 13.0845 19.9681C14.5968 19.9469 15.5494 18.7446 16.4576 17.5164C17.5459 16.1217 17.983 14.746 18 14.6764C17.9661 14.6658 15.0653 13.6641 15.0353 10.6354ZM12.2598 3.20571C13.0179 2.34912 13.536 1.18341 13.3924 0C12.295 0.0436552 10.9236 0.685504 10.1328 1.52439C9.43337 2.26299 8.80963 3.47354 8.97013 4.61211C10.2033 4.6947 11.469 4.04932 12.2598 3.20571Z" fill="#302E3A"/>
</svg>
