<svg width="36" height="36" viewBox="0 0 36 36" fill="none" xmlns="http://www.w3.org/2000/svg">
<rect width="36" height="36" rx="18" fill="#FF7116"/>
<path fill-rule="evenodd" clip-rule="evenodd" d="M9.90039 23.6857C11.4531 24.6548 13.2965 25.2193 15.2783 25.2193C21.7319 25.2193 25.2605 20.0178 25.2605 15.5075C25.2605 15.3596 25.257 15.2135 25.2502 15.0673C25.9359 14.5857 26.531 13.9849 27.0004 13.3005C26.372 13.5726 25.6957 13.7551 24.986 13.8362C25.7102 13.4163 26.2651 12.7454 26.5284 11.9495C25.8504 12.3398 25.0989 12.6237 24.3003 12.7767C23.6608 12.1142 22.7485 11.7002 21.7396 11.7002C19.8021 11.7002 18.2307 13.227 18.2307 15.1112C18.2307 15.3799 18.2623 15.6393 18.3221 15.8894C15.4066 15.7475 12.8202 14.3888 11.0914 12.3238C10.7896 12.829 10.616 13.4137 10.616 14.0398C10.616 15.2236 11.235 16.2688 12.1764 16.8805C11.601 16.8645 11.0606 16.7099 10.587 16.4538C10.587 16.4682 10.587 16.4826 10.587 16.4969C10.587 18.1496 11.7976 19.5303 13.4008 19.8437C13.1075 19.9223 12.7971 19.9629 12.4774 19.9629C12.2508 19.9629 12.0311 19.9426 11.8173 19.902C12.2628 21.259 13.5589 22.2459 15.0937 22.2721C13.8932 23.188 12.3825 23.7322 10.7374 23.7322C10.4544 23.7322 10.1757 23.7186 9.90039 23.6857Z" fill="white"/>
</svg>
