<svg width="43" height="47" viewBox="0 0 43 47" fill="none" xmlns="http://www.w3.org/2000/svg">
<path d="M1.40293 1.23047C0.856012 1.77069 0.671875 2.67196 0.671875 3.75511V43.5984C0.671875 44.6788 1.0374 45.5828 1.58432 46.123L1.76571 46.3022L24.3982 23.9468V23.5858L1.40293 1.23047Z" fill="url(#paint0_linear_215_43057)"/>
<path d="M31.6985 31.5177L24.2148 24.1256V23.5854L31.6985 16.1934L31.8799 16.3725L40.823 21.4191C43.379 22.8606 43.379 25.2061 40.823 26.6476L31.6985 31.5177Z" fill="url(#paint1_linear_215_43057)"/>
<path d="M31.8891 31.3368L24.224 23.7656L1.41016 46.3001C2.3226 47.2014 3.60057 47.2014 5.24407 46.4793L31.8891 31.3368Z" fill="url(#paint2_linear_215_43057)"/>
<path d="M31.888 16.193L5.24017 1.22972C3.59667 0.328452 2.31869 0.50762 1.40625 1.40889L24.2201 23.7642L31.888 16.193Z" fill="url(#paint3_linear_215_43057)"/>
<defs>
<linearGradient id="paint0_linear_215_43057" x1="12.5374" y1="1.10109" x2="12.5374" y2="45.9661" gradientUnits="userSpaceOnUse">
<stop stop-color="#267CAF"/>
<stop offset="0.286" stop-color="#4A92B4"/>
<stop offset="0.767" stop-color="#79BCBA"/>
<stop offset="1" stop-color="#88CEBC"/>
</linearGradient>
<linearGradient id="paint1_linear_215_43057" x1="36.0266" y1="18.3511" x2="30.6006" y2="30.7764" gradientUnits="userSpaceOnUse">
<stop stop-color="#F48879"/>
<stop offset="0.119" stop-color="#F5907A"/>
<stop offset="0.713" stop-color="#FBB777"/>
<stop offset="1" stop-color="#FDC874"/>
</linearGradient>
<linearGradient id="paint2_linear_215_43057" x1="27.7949" y1="27.7587" x2="3.11403" y2="47.9654" gradientUnits="userSpaceOnUse">
<stop stop-color="#EB413D"/>
<stop offset="0.167" stop-color="#D94452"/>
<stop offset="0.575" stop-color="#AF487A"/>
<stop offset="0.862" stop-color="#954B92"/>
<stop offset="1" stop-color="#894A9C"/>
</linearGradient>
<linearGradient id="paint3_linear_215_43057" x1="4.63845" y1="2.31744" x2="28.262" y2="20.5809" gradientUnits="userSpaceOnUse">
<stop stop-color="#54C0AC"/>
<stop offset="1" stop-color="#DDE79A"/>
</linearGradient>
</defs>
</svg>
